<?xml version="1.0" encoding="UTF-8" standalone="no"?>
<!DOCTYPE svg PUBLIC "-//W3C//DTD SVG 1.1//EN" "http://www.w3.org/Graphics/SVG/1.1/DTD/svg11.dtd">
<svg width="100%" height="100%" viewBox="0 0 178 178" version="1.1" xmlns="http://www.w3.org/2000/svg" xmlns:xlink="http://www.w3.org/1999/xlink" xml:space="preserve" xmlns:affinity="https://www.affinity.studio/" style="fill-rule:evenodd;clip-rule:evenodd;stroke-linejoin:round;stroke-miterlimit:2;">
    <g transform="matrix(1,0,0,1,-3794.108623,0)">
        <g id="bk" transform="matrix(0.278212,0,0,0.319339,4239.880045,-78.697372)">
            <rect x="-1602.271" y="246.438" width="636.799" height="554.787" style="fill:none;"/>
            <clipPath id="_clip1">
                <rect x="-1602.271" y="246.438" width="636.799" height="554.787"/>
            </clipPath>
            <g clip-path="url(#_clip1)">
                <g id="king" transform="matrix(3.148463,0,0,2.742979,-19033.63644,-5794.045366)">
                    <g transform="matrix(3.694319,0,0,0.614005,1457.616606,649.458602)">
                        <rect x="1107.989" y="2528.813" width="46.946" height="46.946" style="fill:rgb(43,164,209);"/>
                    </g>
                    <g transform="matrix(3.694319,0,0,0.614005,1457.616606,822.890945)">
                        <rect x="1107.989" y="2528.813" width="46.946" height="46.946" style="fill:rgb(43,164,209);"/>
                    </g>
                    <g transform="matrix(0,4.308324,-0.614005,0,7291.427455,-2571.411841)">
                        <rect x="1107.989" y="2528.813" width="46.946" height="46.946" style="fill:rgb(43,164,209);"/>
                    </g>
                    <g transform="matrix(0,4.308324,-0.614005,0,7117.995111,-2571.411841)">
                        <rect x="1107.989" y="2528.813" width="46.946" height="46.946" style="fill:rgb(43,164,209);"/>
                    </g>
                </g>
            </g>
        </g>
    </g>
</svg>
