<?xml version="1.0" encoding="UTF-8" standalone="no"?>
<!DOCTYPE svg PUBLIC "-//W3C//DTD SVG 1.1//EN" "http://www.w3.org/Graphics/SVG/1.1/DTD/svg11.dtd">
<svg width="100%" height="100%" viewBox="0 0 178 178" version="1.1" xmlns="http://www.w3.org/2000/svg" xmlns:xlink="http://www.w3.org/1999/xlink" xml:space="preserve" xmlns:affinity="https://www.affinity.studio/" style="fill-rule:evenodd;clip-rule:evenodd;stroke-linejoin:round;stroke-miterlimit:2;">
    <g transform="matrix(1,0,0,1,-3990.753099,-284.314805)">
        <g id="wq" transform="matrix(0.278212,0,0,0.319339,4436.524521,205.617433)">
            <rect x="-1602.271" y="246.438" width="636.799" height="554.787" style="fill:none;"/>
            <g transform="matrix(3.148463,0,0,2.742979,-15253.425834,-6381.598178)">
                <g id="rook" transform="matrix(1,0,0,1,3305.482037,-284.996787)">
                    <path d="M1117.009,2729.111L1145.914,2729.111L1145.914,2786.962L1203.685,2786.962L1203.685,2815.908L1145.914,2815.908L1145.914,2873.719L1117.049,2873.719L1117.049,2815.908L1059.238,2815.908L1059.238,2786.962L1117.049,2786.962L1117.009,2729.111Z" style="fill:rgb(209,82,29);"/>
                </g>
                <g id="bishop" transform="matrix(1,0,0,1,-453.612451,-285.089555)">
                    <g transform="matrix(1,0,0,1,3874.675788,-28.852885)">
                        <rect x="1059.238" y="2758.057" width="28.865" height="28.905" style="fill:rgb(209,82,29);"/>
                    </g>
                    <g transform="matrix(1,0,0,1,3759.094488,86.768678)">
                        <rect x="1059.238" y="2758.057" width="28.865" height="28.905" style="fill:rgb(209,82,29);"/>
                    </g>
                    <g transform="matrix(1,0,0,1,3759.094488,-28.852885)">
                        <rect x="1059.238" y="2758.057" width="28.865" height="28.905" style="fill:rgb(209,82,29);"/>
                    </g>
                    <g transform="matrix(3.002092,0,0,3,1667.266987,-5516.06149)">
                        <rect x="1059.238" y="2758.057" width="28.865" height="28.905" style="fill:rgb(209,82,29);"/>
                    </g>
                    <g transform="matrix(1,0,0,1,3874.615395,86.768678)">
                        <rect x="1059.238" y="2758.057" width="28.865" height="28.905" style="fill:rgb(209,82,29);"/>
                    </g>
                </g>
            </g>
        </g>
    </g>
</svg>
