<?xml version="1.0" encoding="UTF-8" standalone="no"?>
<!DOCTYPE svg PUBLIC "-//W3C//DTD SVG 1.1//EN" "http://www.w3.org/Graphics/SVG/1.1/DTD/svg11.dtd">
<svg width="100%" height="100%" viewBox="0 0 178 178" version="1.1" xmlns="http://www.w3.org/2000/svg" xmlns:xlink="http://www.w3.org/1999/xlink" xml:space="preserve" xmlns:serif="http://www.serif.com/" style="fill-rule:evenodd;clip-rule:evenodd;stroke-linecap:round;stroke-linejoin:round;stroke-miterlimit:1.5;">
    <g transform="matrix(1,0,0,1,-1578.785758,0)">
        <g id="bk" transform="matrix(0.278212,0,0,0.319339,2024.557179,-78.697372)">
            <rect x="-1602.271" y="246.438" width="636.799" height="554.787" style="fill:none;"/>
            <g transform="matrix(3.011953,0,0,2.62405,-3909.604379,-5927.603497)">
                <path d="M871.771,2383.692C913.102,2383.692 946.658,2417.248 946.658,2458.58C946.658,2499.911 913.102,2533.467 871.771,2533.467C830.439,2533.467 796.883,2499.911 796.883,2458.58C796.883,2417.248 830.439,2383.692 871.771,2383.692ZM871.771,2429.359C855.643,2429.359 842.55,2442.452 842.55,2458.58C842.55,2474.707 855.643,2487.801 871.771,2487.801C887.898,2487.801 900.992,2474.707 900.992,2458.58C900.992,2442.452 887.898,2429.359 871.771,2429.359Z" style="fill:rgb(81,146,230);stroke:rgb(26,82,156);stroke-width:7.87px;"/>
            </g>
            <g transform="matrix(3.594379,0,0,3.131466,-7269.54818,246.438182)">
                <path d="M1618.769,88.491C1618.758,88.787 1618.678,89.69 1618.113,90.336C1618.102,90.349 1616.289,91.245 1616.28,91.242C1615.641,91.026 1614.872,91.03 1614.363,90.585C1613.306,89.66 1613.496,89.5 1613.402,88.1C1612.541,75.266 1616.323,43.704 1650.703,36.593C1658.896,34.899 1666.56,35.294 1667.34,35.284C1668.441,35.271 1669.118,35.936 1669.234,36.051C1670.025,36.828 1670.032,37.763 1670.033,37.926C1670.042,38.998 1670.018,39.048 1669.267,39.813C1668.302,40.794 1668.145,40.547 1666.774,40.631C1656.497,41.269 1635.975,43.863 1625.076,63.906C1619.571,74.03 1618.803,84.626 1618.769,88.491ZM1618.769,88.491C1618.773,88.405 1618.771,88.369 1618.773,88.406C1618.916,90.666 1618.753,90.403 1618.769,88.491Z" style="fill:white;"/>
            </g>
        </g>
    </g>
</svg>
