<?xml version="1.0" encoding="UTF-8" standalone="no"?>
<!DOCTYPE svg PUBLIC "-//W3C//DTD SVG 1.1//EN" "http://www.w3.org/Graphics/SVG/1.1/DTD/svg11.dtd">
<svg width="100%" height="100%" viewBox="0 0 178 178" version="1.1" xmlns="http://www.w3.org/2000/svg" xmlns:xlink="http://www.w3.org/1999/xlink" xml:space="preserve" xmlns:serif="http://www.serif.com/" style="fill-rule:evenodd;clip-rule:evenodd;stroke-linecap:round;stroke-linejoin:round;stroke-miterlimit:1.5;">
    <g transform="matrix(1,0,0,1,-2190.327878,0)">
        <g id="bn" transform="matrix(0.278212,0,0,0.319339,2636.0993,-78.697372)">
            <rect x="-1602.271" y="246.438" width="636.799" height="554.787" style="fill:none;"/>
            <g transform="matrix(2.787899,0,0,2.428852,-3069.382261,-5344.599607)">
                <path d="M694.438,2371.807C694.438,2360.148 684.987,2350.696 673.327,2350.696L593.373,2350.696C585.284,2350.696 578.726,2357.254 578.726,2365.343C578.726,2369.829 578.726,2374.762 578.726,2379.248C578.726,2383.133 580.269,2386.858 583.016,2389.605C585.763,2392.352 589.488,2393.895 593.373,2393.895C605.957,2393.895 624.009,2393.895 636.592,2393.895C640.477,2393.895 644.202,2395.438 646.949,2398.185C649.696,2400.932 651.239,2404.657 651.239,2408.542C651.239,2425.337 651.239,2452.709 651.239,2469.504C651.239,2473.389 652.782,2477.114 655.529,2479.861C658.276,2482.608 662.001,2484.151 665.886,2484.151L679.792,2484.151C687.881,2484.151 694.438,2477.593 694.438,2469.504C694.438,2445.833 694.438,2399.074 694.438,2371.807Z" style="fill:rgb(81,146,230);stroke:rgb(26,82,156);stroke-width:8.5px;"/>
            </g>
            <g transform="matrix(3.594379,0,0,3.131466,-9485.923007,249.569649)">
                <path d="M2245.719,47.97C2243.666,49.397 2243.401,50.642 2244.568,59.196C2244.779,60.742 2243.64,59.471 2242.147,59.914C2239.725,53.249 2237.619,47.762 2242.635,43.691C2243.671,42.851 2245.191,41.902 2261.903,41.8C2275.926,41.714 2307.702,43.904 2307.722,43.922C2308.164,44.315 2308.493,44.825 2308.935,45.218C2308.374,45.564 2307.935,46.085 2307.375,46.432C2307.324,46.463 2297.828,46.357 2265.969,46.985C2258.435,47.133 2248.559,47.188 2245.719,47.97ZM2245.847,47.882L2245.848,47.884L2245.939,47.82C2245.908,47.841 2245.877,47.861 2245.847,47.882Z" style="fill:white;"/>
            </g>
        </g>
    </g>
</svg>
