<?xml version="1.0" encoding="UTF-8" standalone="no"?>
<!DOCTYPE svg PUBLIC "-//W3C//DTD SVG 1.1//EN" "http://www.w3.org/Graphics/SVG/1.1/DTD/svg11.dtd">
<svg width="100%" height="100%" viewBox="0 0 178 178" version="1.1" xmlns="http://www.w3.org/2000/svg" xmlns:xlink="http://www.w3.org/1999/xlink" xml:space="preserve" xmlns:serif="http://www.serif.com/" style="fill-rule:evenodd;clip-rule:evenodd;stroke-linecap:round;stroke-linejoin:round;stroke-miterlimit:1.5;">
    <g transform="matrix(1,0,0,1,-1765.503223,0)">
        <g id="bn" transform="matrix(0.278212,0,0,0.319339,2211.274644,-78.697372)">
            <rect x="-1602.271" y="246.438" width="636.799" height="554.787" style="fill:none;"/>
            <g transform="matrix(2.787899,0,0,2.428852,-3058.599124,-5347.731074)">
                <path d="M694.438,2371.807C694.438,2360.148 684.987,2350.696 673.327,2350.696L593.373,2350.696C585.284,2350.696 578.726,2357.254 578.726,2365.343C578.726,2369.829 578.726,2374.762 578.726,2379.248C578.726,2383.133 580.269,2386.858 583.016,2389.605C585.763,2392.352 589.488,2393.895 593.373,2393.895C605.957,2393.895 624.009,2393.895 636.592,2393.895C640.477,2393.895 644.202,2395.438 646.949,2398.185C649.696,2400.932 651.239,2404.657 651.239,2408.542C651.239,2425.337 651.239,2452.709 651.239,2469.504C651.239,2473.389 652.782,2477.114 655.529,2479.861C658.276,2482.608 662.001,2484.151 665.886,2484.151L679.792,2484.151C687.881,2484.151 694.438,2477.593 694.438,2469.504C694.438,2445.833 694.438,2399.074 694.438,2371.807Z" style="fill:rgb(77,77,77);stroke:rgb(31,31,31);stroke-width:8.5px;"/>
            </g>
        </g>
    </g>
</svg>
