<?xml version="1.0" encoding="UTF-8" standalone="no"?>
<!DOCTYPE svg PUBLIC "-//W3C//DTD SVG 1.1//EN" "http://www.w3.org/Graphics/SVG/1.1/DTD/svg11.dtd">
<svg width="100%" height="100%" viewBox="0 0 178 178" version="1.1" xmlns="http://www.w3.org/2000/svg" xmlns:xlink="http://www.w3.org/1999/xlink" xml:space="preserve" xmlns:serif="http://www.serif.com/" style="fill-rule:evenodd;clip-rule:evenodd;stroke-linecap:round;stroke-linejoin:round;stroke-miterlimit:1.5;">
    <g transform="matrix(1,0,0,1,-1985.627623,-284.314805)">
        <g id="wb" transform="matrix(0.278212,0,0,0.319339,2431.399045,205.617433)">
            <rect x="-1602.271" y="246.438" width="636.799" height="554.787" style="fill:none;"/>
            <g transform="matrix(2.230495,-1.943234,2.230495,1.943234,-7931.655183,-2566.711378)">
                <path d="M692.784,2204.644C693.058,2203.648 693.964,2202.958 694.998,2202.958C696.031,2202.958 696.937,2203.648 697.211,2204.644C700.437,2216.341 706.473,2238.228 710.41,2252.507C712.755,2261.009 719.398,2267.652 727.9,2269.996C742.179,2273.934 764.066,2279.97 775.763,2283.196C776.759,2283.47 777.449,2284.376 777.449,2285.409C777.449,2286.443 776.759,2287.349 775.763,2287.623C764.066,2290.849 742.179,2296.885 727.9,2300.822C719.398,2303.167 712.755,2309.81 710.41,2318.312C706.473,2332.591 700.437,2354.478 697.211,2366.175C696.937,2367.171 696.031,2367.861 694.998,2367.861C693.964,2367.861 693.058,2367.171 692.784,2366.175C689.558,2354.478 683.522,2332.591 679.585,2318.312C677.24,2309.81 670.597,2303.167 662.095,2300.822C647.816,2296.885 625.929,2290.849 614.232,2287.623C613.236,2287.349 612.546,2286.443 612.546,2285.409C612.546,2284.376 613.236,2283.47 614.232,2283.196C625.929,2279.97 647.816,2273.934 662.095,2269.996C670.597,2267.652 677.24,2261.009 679.585,2252.507C683.522,2238.228 689.558,2216.341 692.784,2204.644Z" style="fill:rgb(243,83,83);stroke:rgb(114,35,35);stroke-width:7.51px;"/>
            </g>
            <g transform="matrix(3.594379,0,0,3.131466,-8739.369578,247.199144)">
                <path d="M2053.566,67.505C2059.953,80.336 2060.727,95.14 2050.386,109.395C2049.864,110.114 2049.926,110.275 2049.052,110.429C2049.035,110.432 2047.816,110.161 2047.811,110.154C2047.585,109.799 2047.209,109.502 2047.136,109.088C2046.985,108.232 2047.163,108.242 2047.635,107.515C2050.589,102.962 2060.905,86.348 2045.51,64.935C2043.78,62.529 2043.675,62.613 2041.866,60.267C2038.933,56.462 2037.603,55.479 2037.262,54.859C2036.239,53.001 2037.866,50.745 2039.948,51.125C2040.051,51.143 2040.594,51.242 2041.133,51.682C2041.178,51.72 2041.225,51.758 2041.273,51.798C2041.812,52.234 2042.474,52.781 2043.288,53.523C2047.991,57.615 2056.467,65.127 2062.891,67.53C2063.59,67.792 2066.592,69.145 2074.574,69.271C2086.595,69.461 2097.79,59.938 2101.849,55.712C2102.25,55.295 2102.269,55.273 2102.848,55.242C2102.864,55.241 2103.897,55.604 2103.9,55.613C2104.06,55.943 2104.351,56.241 2104.371,56.607C2104.41,57.316 2104.315,57.316 2103.837,57.843C2102.321,59.516 2096.587,65.392 2088.802,69.328C2080.982,73.281 2075.352,73.318 2069.848,73.014C2063.824,72.682 2059.438,71.274 2053.566,67.505Z" style="fill:white;"/>
            </g>
        </g>
    </g>
</svg>
