<?xml version="1.0" encoding="UTF-8" standalone="no"?>
<!DOCTYPE svg PUBLIC "-//W3C//DTD SVG 1.1//EN" "http://www.w3.org/Graphics/SVG/1.1/DTD/svg11.dtd">
<svg width="100%" height="100%" viewBox="0 0 178 178" version="1.1" xmlns="http://www.w3.org/2000/svg" xmlns:xlink="http://www.w3.org/1999/xlink" xml:space="preserve" xmlns:serif="http://www.serif.com/" style="fill-rule:evenodd;clip-rule:evenodd;stroke-linecap:round;stroke-linejoin:round;stroke-miterlimit:1.5;">
    <g transform="matrix(1,0,0,1,-1560.802967,-284.314805)">
        <g id="wb" transform="matrix(0.278212,0,0,0.319339,2006.574389,205.617433)">
            <rect x="-1602.271" y="246.438" width="636.799" height="554.787" style="fill:none;"/>
            <g transform="matrix(2.230495,-1.943234,2.230495,1.943234,-7931.655183,-2566.711378)">
                <path d="M692.784,2204.644C693.058,2203.648 693.964,2202.958 694.998,2202.958C696.031,2202.958 696.937,2203.648 697.211,2204.644C700.437,2216.341 706.473,2238.228 710.41,2252.507C712.755,2261.009 719.398,2267.652 727.9,2269.996C742.179,2273.934 764.066,2279.97 775.763,2283.196C776.759,2283.47 777.449,2284.376 777.449,2285.409C777.449,2286.443 776.759,2287.349 775.763,2287.623C764.066,2290.849 742.179,2296.885 727.9,2300.822C719.398,2303.167 712.755,2309.81 710.41,2318.312C706.473,2332.591 700.437,2354.478 697.211,2366.175C696.937,2367.171 696.031,2367.861 694.998,2367.861C693.964,2367.861 693.058,2367.171 692.784,2366.175C689.558,2354.478 683.522,2332.591 679.585,2318.312C677.24,2309.81 670.597,2303.167 662.095,2300.822C647.816,2296.885 625.929,2290.849 614.232,2287.623C613.236,2287.349 612.546,2286.443 612.546,2285.409C612.546,2284.376 613.236,2283.47 614.232,2283.196C625.929,2279.97 647.816,2273.934 662.095,2269.996C670.597,2267.652 677.24,2261.009 679.585,2252.507C683.522,2238.228 689.558,2216.341 692.784,2204.644Z" style="fill:white;stroke:rgb(31,31,31);stroke-width:7.51px;"/>
            </g>
        </g>
    </g>
</svg>
