<?xml version="1.0" encoding="UTF-8" standalone="no"?>
<!DOCTYPE svg PUBLIC "-//W3C//DTD SVG 1.1//EN" "http://www.w3.org/Graphics/SVG/1.1/DTD/svg11.dtd">
<svg width="100%" height="100%" viewBox="0 0 178 178" version="1.1" xmlns="http://www.w3.org/2000/svg" xmlns:xlink="http://www.w3.org/1999/xlink" xml:space="preserve" xmlns:serif="http://www.serif.com/" style="fill-rule:evenodd;clip-rule:evenodd;stroke-linecap:round;stroke-linejoin:round;stroke-miterlimit:1.5;">
    <g transform="matrix(1,0,0,1,-2611.659717,-284.314805)">
        <g id="wp" transform="matrix(0.278212,0,0,0.319339,3057.431138,205.617433)">
            <rect x="-1602.271" y="246.438" width="636.799" height="554.787" style="fill:none;"/>
            <g transform="matrix(2.566412,0,0,2.528283,-2211.584662,-3845.016921)">
                <path d="M415.013,1701.798C415.013,1697.601 413.128,1693.575 409.772,1690.607C406.415,1687.639 401.863,1685.972 397.117,1685.972L325.848,1685.972C321.102,1685.972 316.55,1687.639 313.193,1690.607C309.837,1693.575 307.952,1697.601 307.952,1701.798C307.952,1716.793 307.952,1739.188 307.952,1754.183C307.952,1758.38 309.837,1762.406 313.193,1765.374C316.55,1768.342 321.102,1770.01 325.848,1770.01C345.637,1770.01 377.328,1770.01 397.117,1770.01C401.863,1770.01 406.415,1768.342 409.772,1765.374C413.128,1762.406 415.013,1758.38 415.013,1754.183C415.013,1739.188 415.013,1716.793 415.013,1701.798Z" style="fill:rgb(243,83,83);stroke:rgb(114,35,35);stroke-width:8.65px;"/>
            </g>
            <g transform="matrix(3.594379,0,0,3.131466,-10989.566167,248.93617)">
                <path d="M2724.642,64.793C2724.135,65.093 2723.788,65.621 2723.281,65.921C2723.177,65.983 2723.166,65.901 2720.354,65.799C2704.071,65.215 2681.453,65.512 2676.629,68.585C2674.699,69.814 2672.698,81.461 2673.03,103.101C2673.064,105.337 2673.119,106.958 2673.13,107.293C2673.174,108.585 2672.782,108.475 2671.624,109.053C2671.616,109.057 2670.44,108.67 2670.427,108.659C2669.777,108.1 2669.9,108.002 2669.809,107.148C2669.244,101.862 2667.761,85.574 2668.846,74.959C2669.784,65.781 2672.126,63.956 2675.153,62.692C2683.468,59.22 2705.159,60.975 2721.596,63.159C2722.518,63.281 2723.514,63.422 2723.515,63.422L2724.642,64.793Z" style="fill:white;"/>
            </g>
        </g>
    </g>
</svg>
