<?xml version="1.0" encoding="UTF-8" standalone="no"?>
<!DOCTYPE svg PUBLIC "-//W3C//DTD SVG 1.1//EN" "http://www.w3.org/Graphics/SVG/1.1/DTD/svg11.dtd">
<svg width="100%" height="100%" viewBox="0 0 178 178" version="1.1" xmlns="http://www.w3.org/2000/svg" xmlns:xlink="http://www.w3.org/1999/xlink" xml:space="preserve" xmlns:serif="http://www.serif.com/" style="fill-rule:evenodd;clip-rule:evenodd;stroke-linecap:round;stroke-linejoin:round;stroke-miterlimit:1.5;">
    <g transform="matrix(1,0,0,1,-1359.940821,-284.314805)">
        <g id="wq" transform="matrix(0.278212,0,0,0.319339,1805.712242,205.617433)">
            <rect x="-1602.271" y="246.438" width="636.799" height="554.787" style="fill:none;"/>
            <g transform="matrix(2.853081,0,0,2.485639,-3714.335036,-6148.454882)">
                <path d="M869.304,2645.686L869.304,2617.316C869.304,2614.123 868.036,2611.061 865.778,2608.803C863.52,2606.546 860.458,2605.277 857.265,2605.277C853.777,2605.277 849.969,2605.277 846.481,2605.277C843.288,2605.277 840.226,2606.546 837.969,2608.803C835.711,2611.061 834.443,2614.123 834.443,2617.316C834.443,2629.225 834.443,2645.686 834.443,2645.686C834.443,2645.686 807.542,2630.415 793.572,2622.485C792.553,2621.907 791.274,2622.08 790.446,2622.908C789.618,2623.736 789.445,2625.015 790.023,2626.034C797.954,2640.004 813.225,2666.904 813.225,2666.904L784.854,2666.904C781.661,2666.904 778.599,2668.173 776.342,2670.43C774.084,2672.688 772.816,2675.75 772.816,2678.943C772.816,2682.431 772.816,2686.239 772.816,2689.727C772.816,2692.92 774.084,2695.982 776.342,2698.24C778.599,2700.497 781.661,2701.766 784.854,2701.766C796.764,2701.766 813.225,2701.766 813.225,2701.766C813.225,2701.766 797.954,2728.666 790.023,2742.636C789.445,2743.655 789.618,2744.934 790.446,2745.762C791.274,2746.59 792.553,2746.763 793.572,2746.185C807.542,2738.255 834.443,2722.983 834.443,2722.983L834.443,2751.354C834.443,2754.547 835.711,2757.609 837.969,2759.867C840.226,2762.124 843.288,2763.393 846.481,2763.393C849.969,2763.393 853.777,2763.393 857.265,2763.393C860.458,2763.393 863.52,2762.124 865.778,2759.867C868.036,2757.609 869.304,2754.547 869.304,2751.354C869.304,2739.445 869.304,2722.983 869.304,2722.983C869.304,2722.983 896.205,2738.255 910.175,2746.185C911.193,2746.763 912.472,2746.59 913.3,2745.762C914.128,2744.934 914.302,2743.655 913.723,2742.636C905.793,2728.666 890.522,2701.766 890.522,2701.766L918.893,2701.766C922.085,2701.766 925.147,2700.497 927.405,2698.24C929.663,2695.982 930.931,2692.92 930.931,2689.727C930.931,2686.239 930.931,2682.431 930.931,2678.943C930.931,2675.75 929.663,2672.688 927.405,2670.43C925.147,2668.173 922.085,2666.904 918.893,2666.904C906.983,2666.904 890.522,2666.904 890.522,2666.904C890.522,2666.904 905.793,2640.004 913.723,2626.034C914.302,2625.015 914.128,2623.736 913.3,2622.908C912.472,2622.08 911.193,2621.907 910.175,2622.485C896.205,2630.415 869.304,2645.686 869.304,2645.686Z" style="fill:white;stroke:rgb(31,31,31);stroke-width:8.31px;"/>
            </g>
        </g>
    </g>
</svg>
