<?xml version="1.0" encoding="UTF-8" standalone="no"?>
<!DOCTYPE svg PUBLIC "-//W3C//DTD SVG 1.1//EN" "http://www.w3.org/Graphics/SVG/1.1/DTD/svg11.dtd">
<svg width="100%" height="100%" viewBox="0 0 178 178" version="1.1" xmlns="http://www.w3.org/2000/svg" xmlns:xlink="http://www.w3.org/1999/xlink" xml:space="preserve" xmlns:serif="http://www.serif.com/" style="fill-rule:evenodd;clip-rule:evenodd;stroke-linecap:round;stroke-linejoin:round;stroke-miterlimit:1.5;">
    <g transform="matrix(1,0,0,1,-1784.765476,-284.314805)">
        <g id="wq" transform="matrix(0.278212,0,0,0.319339,2230.536898,205.617433)">
            <rect x="-1602.271" y="246.438" width="636.799" height="554.787" style="fill:none;"/>
            <g transform="matrix(2.853081,0,0,2.485639,-3714.335036,-6148.454882)">
                <path d="M869.304,2645.686L869.304,2617.316C869.304,2614.123 868.036,2611.061 865.778,2608.803C863.52,2606.546 860.458,2605.277 857.265,2605.277C853.777,2605.277 849.969,2605.277 846.481,2605.277C843.288,2605.277 840.226,2606.546 837.969,2608.803C835.711,2611.061 834.443,2614.123 834.443,2617.316C834.443,2629.225 834.443,2645.686 834.443,2645.686C834.443,2645.686 807.542,2630.415 793.572,2622.485C792.553,2621.907 791.274,2622.08 790.446,2622.908C789.618,2623.736 789.445,2625.015 790.023,2626.034C797.954,2640.004 813.225,2666.904 813.225,2666.904L784.854,2666.904C781.661,2666.904 778.599,2668.173 776.342,2670.43C774.084,2672.688 772.816,2675.75 772.816,2678.943C772.816,2682.431 772.816,2686.239 772.816,2689.727C772.816,2692.92 774.084,2695.982 776.342,2698.24C778.599,2700.497 781.661,2701.766 784.854,2701.766C796.764,2701.766 813.225,2701.766 813.225,2701.766C813.225,2701.766 797.954,2728.666 790.023,2742.636C789.445,2743.655 789.618,2744.934 790.446,2745.762C791.274,2746.59 792.553,2746.763 793.572,2746.185C807.542,2738.255 834.443,2722.983 834.443,2722.983L834.443,2751.354C834.443,2754.547 835.711,2757.609 837.969,2759.867C840.226,2762.124 843.288,2763.393 846.481,2763.393C849.969,2763.393 853.777,2763.393 857.265,2763.393C860.458,2763.393 863.52,2762.124 865.778,2759.867C868.036,2757.609 869.304,2754.547 869.304,2751.354C869.304,2739.445 869.304,2722.983 869.304,2722.983C869.304,2722.983 896.205,2738.255 910.175,2746.185C911.193,2746.763 912.472,2746.59 913.3,2745.762C914.128,2744.934 914.302,2743.655 913.723,2742.636C905.793,2728.666 890.522,2701.766 890.522,2701.766L918.893,2701.766C922.085,2701.766 925.147,2700.497 927.405,2698.24C929.663,2695.982 930.931,2692.92 930.931,2689.727C930.931,2686.239 930.931,2682.431 930.931,2678.943C930.931,2675.75 929.663,2672.688 927.405,2670.43C925.147,2668.173 922.085,2666.904 918.893,2666.904C906.983,2666.904 890.522,2666.904 890.522,2666.904C890.522,2666.904 905.793,2640.004 913.723,2626.034C914.302,2625.015 914.128,2623.736 913.3,2622.908C912.472,2622.08 911.193,2621.907 910.175,2622.485C896.205,2630.415 869.304,2645.686 869.304,2645.686Z" style="fill:rgb(243,83,83);stroke:rgb(114,35,35);stroke-width:8.31px;"/>
            </g>
            <g transform="matrix(3.594379,0,0,3.131466,-8017.394904,245.462165)">
                <path d="M1824.01,86.769C1823.617,86.793 1823.095,86.93 1822.856,88.697C1822.654,90.182 1823.01,91.83 1823.027,91.923C1823.147,92.582 1822.846,92.527 1822.471,93.653C1821.929,93.409 1821.324,93.326 1820.783,93.082C1820.776,93.079 1820.251,92.343 1819.837,91.597C1819.828,91.581 1816.77,86.787 1819.81,82.904C1820.984,81.405 1822.117,80.982 1824.493,80.554C1831.217,79.343 1847.362,79.758 1851.984,79.865C1852.164,79.844 1852.557,79.766 1852.779,79.453C1853.073,79.038 1852.982,78.543 1852.823,78.288C1852.01,76.986 1842.939,62.467 1842.591,62.061C1842.204,61.61 1841.71,61.265 1841.282,60.853C1840.657,60.252 1840.184,57.758 1842.221,56.53C1842.747,56.213 1843.779,55.831 1845.012,56.285C1846.19,56.718 1846.213,56.645 1846.312,56.692C1847.756,57.374 1863.904,65.911 1865.431,66.718C1865.805,66.916 1866.126,66.595 1866.112,66.318C1865.616,56.438 1864.545,40.486 1868.473,35.568C1869.17,34.696 1870.004,34.132 1870.901,33.845C1872.133,33.451 1873.078,33.958 1873.244,34.048C1873.261,34.057 1874.56,35.647 1874.674,35.786C1874.848,36 1874.587,35.993 1872.918,39.061L1873.104,39.25C1870.397,43.439 1872.103,65.688 1872.054,66.654C1871.813,71.351 1866.73,74.126 1862.694,71.968C1861.609,71.388 1850.983,65.705 1848.478,64.337C1851.426,68.574 1856.633,76.016 1856.81,76.34C1858.884,80.142 1855.968,84.509 1852.147,84.655C1852.01,84.66 1843.694,84.861 1834.831,85.5C1834.286,85.54 1831.383,85.749 1828.028,86.15C1825.252,86.482 1824.373,86.776 1824.067,86.878L1824.01,86.769Z" style="fill:white;"/>
            </g>
        </g>
    </g>
</svg>
