<?xml version="1.0" encoding="UTF-8" standalone="no"?>
<!DOCTYPE svg PUBLIC "-//W3C//DTD SVG 1.1//EN" "http://www.w3.org/Graphics/SVG/1.1/DTD/svg11.dtd">
<svg width="100%" height="100%" viewBox="0 0 178 178" version="1.1" xmlns="http://www.w3.org/2000/svg" xmlns:xlink="http://www.w3.org/1999/xlink" xml:space="preserve" xmlns:serif="http://www.serif.com/" style="fill-rule:evenodd;clip-rule:evenodd;stroke-linecap:round;stroke-linejoin:round;stroke-miterlimit:1.5;">
    <g transform="matrix(1,0,0,1,-1973.661229,-284.314805)">
        <g id="wr" transform="matrix(0.278212,0,0,0.319339,2419.432651,205.617433)">
            <rect x="-1602.271" y="246.438" width="636.799" height="554.787" style="fill:none;"/>
            <g transform="matrix(2.645526,0,0,2.304814,-2175.771273,-4665.660696)">
                <path d="M376.859,2226.158C368.965,2226.158 362.566,2219.759 362.566,2211.865L362.566,2186.824C362.566,2178.93 356.166,2172.531 348.273,2172.531C341.31,2172.531 332.96,2172.531 325.998,2172.531C318.104,2172.531 311.704,2178.93 311.704,2186.824C311.704,2194.571 311.704,2204.117 311.704,2211.865C311.704,2219.759 305.305,2226.158 297.411,2226.158L272.371,2226.158C264.477,2226.158 258.077,2232.557 258.077,2240.451C258.077,2247.413 258.077,2255.764 258.077,2262.726C258.077,2270.62 264.477,2277.019 272.371,2277.019C280.118,2277.019 289.664,2277.019 297.411,2277.019C305.305,2277.019 311.704,2283.418 311.704,2291.312L311.704,2316.353C311.704,2324.247 318.104,2330.646 325.998,2330.646C332.96,2330.646 341.31,2330.646 348.273,2330.646C356.166,2330.646 362.566,2324.247 362.566,2316.353C362.566,2308.605 362.566,2299.06 362.566,2291.312C362.566,2283.418 368.965,2277.019 376.859,2277.019L401.9,2277.019C409.793,2277.019 416.193,2270.62 416.193,2262.726C416.193,2255.764 416.193,2247.413 416.193,2240.451C416.193,2232.557 409.793,2226.158 401.9,2226.158C394.152,2226.158 384.606,2226.158 376.859,2226.158Z" style="fill:white;stroke:rgb(31,31,31);stroke-width:8.96px;"/>
            </g>
        </g>
    </g>
</svg>
